<?xml version="1.0" standalone="no"?> <!DOCTYPE svg PUBLIC "-//W3C//DTD SVG 1.0//EN" "http://www.w3.org/TR/2001/REC-SVG-20010904/DTD/svg10.dtd" > <svg xmlns="http://www.w3.org/2000/svg" width="100%" height="100%">
<defs >
<font id="pfdindisplayproregular" horiz-adv-x="674" ><font-face
    font-family="PFDinDisplayPro-Regular"
    units-per-em="1000"
    panose-1="2 0 5 6 3 0 0 2 0 4"
    ascent="750"
    descent="-250"
    alphabetic="0" />
<missing-glyph horiz-adv-x="440" d="M0 700H440V0H0V700ZM360 650H80L220 395L360 650ZM390 95V605L250 350L390 95ZM360 50L220 305L80 50H360ZM50 95L190 350L50 605V95Z" />
<glyph unicode=" " glyph-name="space" horiz-adv-x="240" />
<glyph unicode="!" glyph-name="exclam" horiz-adv-x="237" d="M156 189H81L74 696H163L156 189ZM60 55Q60 76 74 94T117 112Q146 112 162 94T178 55Q178 30 162 13T117 -5Q89 -5 75 12T60 55Z" />
<glyph unicode="&quot;" glyph-name="quotedbl" horiz-adv-x="306" d="M178 509V696H247V509H178ZM56 509V696H125V509H56Z" />
<glyph unicode="#" glyph-name="numbersign" horiz-adv-x="526" d="M398 421L379 278H473V213H370L341 0H268L298 213H187L158 0H84L115 213H25V278H124L144 421H53V485H153L183 695H252L224 485H337L366 695H436L407 485H501V421H398ZM215 421L196 278H307L327 421H215Z" />
<glyph unicode="$" glyph-name="dollar" horiz-adv-x="500" d="M283 -1V-98H223V-1Q169 3 120 22T26 81L74 146Q115 115 161 97T256 79Q323 79 356 108T390 191Q390 225 376 245T340 278T292 296T240 308Q203 316 168 329T106 364T62 418T45 497Q45 536 58 569T96
628T152 669T223 689V772H283L281 690Q326 688 369 676T455 637L416 563Q378 586 338 598T256 611Q232 611 209 604T169 582T142 546T131 495Q131 467 144 449T179 419T224 400T270 388Q309 378 345 367T411 334T457 279T475 191Q475 106 422 56T281 -1H283Z" />
<glyph unicode="%" glyph-name="percent" horiz-adv-x="800" d="M332 386Q332 359 321 338T290 301T245 278T190 270Q160 270 134 278T89 301T59 337T48 386V577Q48 604 59 625T90 662T135 685T190 693Q218 693 244 685T289 662T320 626T332 577V386ZM261 567Q261
584 254 595T237 614T214 625T190 628Q179 628 167 625T145 615T128 596T121 567V394Q121 377 127 366T144 347T167 337T190 334Q201 334 213 337T236 347T254 365T261 394V567ZM751 112Q751 85 740 64T709 27T664 4T609 -4Q579 -4 553 4T508 27T478 63T467 112V303Q467
330 478 351T509 388T554 411T609 419Q637 419 663 411T708 388T739 352T751 303V112ZM680 293Q680 310 673 321T656 340T633 351T609 354Q598 354 586 351T564 341T547 322T540 293V120Q540 103 546 92T563 73T586 63T609 60Q620 60 632 63T655 73T673 91T680
120V293ZM221 -17H155L580 713H647L221 -17Z" />
<glyph unicode="&amp;" glyph-name="ampersand" horiz-adv-x="831" d="M739 -53Q694 -33 646 -1T562 67Q518 33 462 13T350 -7Q305 -7 266 5T197 43T150 105T133 191Q133 262 178 314T296 408Q269 446 257 476T245 538Q245 569 254 596T282 643T326 674T387 686Q419
686 446 676T492 647T523 604T534 551Q534 493 499 454T405 380Q440 329 482 273T572 162Q623 213 654 279T685 424Q685 487 667 544T611 644T520 712T396 738Q332 738 281 719T193 668T137 593T117 502Q117 468 127 434T159 365L99 330Q72 370 60 412T47 497Q47
557 71 613T140 711T249 779T392 805Q481 805 549 775T662 693T731 572T755 425Q755 331 718 252T620 113Q656 79 693 53T773 10L739 -53ZM459 551Q459 580 438 599T387 618Q369 618 357 611T338 593T327 568T323 543Q323 519 334 496T366 443Q406 465 432 489T459
551ZM515 117Q490 144 465 174T418 234T375 293T338 347Q311 332 287 316T246 281T218 241T207 193Q207 160 217 135T246 94T289 69T342 60Q384 60 428 74T515 117Z" />
<glyph unicode="&apos;" glyph-name="quotesingle" horiz-adv-x="257" d="M97 509V696H166V509H97Z" />
<glyph unicode="(" glyph-name="parenleft" horiz-adv-x="290" d="M238 -120Q201 -80 168 -32T108 70T67 183T51 305Q51 369 66 428T106 542T165 643T235 730L281 702Q249 661 224 614T180 515T151 412T141 310Q141 256 151 202T180 97T224 -1T280 -88L238 -120V-120Z" />
<glyph unicode=")" glyph-name="parenright" horiz-adv-x="290" d="M20 -88Q50 -48 75 -1T119 97T148 202T159 310Q159 360 149 412T121 515T77 613T20 702L65 730Q102 690 135 643T194 542T235 429T250 305Q250 242 235 183T193 70T133 -32T62 -120L20 -88Z" />
<glyph unicode="*" glyph-name="asterisk" horiz-adv-x="361" d="M300 442Q286 431 273 421T244 399L182 503L119 398Q105 409 91 419T63 441L141 532Q113 539 85 547T28 562L47 627L158 580L148 700H216L206 580Q233 591 261 603T317 627L336 561L222 532L300 442Z" />
<glyph unicode="+" glyph-name="plus" horiz-adv-x="500" d="M282 262V70H218V262H29V326H218V516H282V326H470V262H282Z" />
<glyph unicode="," glyph-name="comma" horiz-adv-x="250" d="M64 52Q64 74 80 92T124 110Q143 110 156 103T177 84T188 58T192 30Q192 2 183 -23T160 -70T126 -107T87 -133L57 -94Q80 -77 94 -57T110 -6Q89 -4 77 12T64 52Z" />
<glyph unicode="-" glyph-name="hyphen" horiz-adv-x="392" d="M52 230V305H340V230H52Z" />
<glyph unicode="." glyph-name="period" horiz-adv-x="219" d="M53 55Q53 76 67 94T110 112Q139 112 155 94T171 55Q171 30 155 13T110 -5Q82 -5 68 12T53 55Z" />
<glyph unicode="/" glyph-name="slash" horiz-adv-x="317" d="M64 -42H-1L250 725H315L64 -42Z" />
<glyph unicode="0" glyph-name="zero" horiz-adv-x="500" d="M460 172Q460 130 442 97T393 42T326 7T250 -5Q211 -5 174 7T107 41T59 97T40 172V516Q40 558 58 591T107 648T174 684T250 696Q288 696 325 684T393 649T441 592T460 516V172ZM373 494Q373 527 361
550T331 587T292 608T250 614Q230 614 209 608T169 588T140 550T128 494V194Q128 161 139 139T169 102T208 81T250 75Q270 75 291 81T331 101T361 138T373 194V494Z" />
<glyph unicode="1" glyph-name="one" horiz-adv-x="500" d="M235 0V583L141 506L95 569L240 689H321V0H235Z" />
<glyph unicode="2" glyph-name="two" horiz-adv-x="500" d="M458 515Q458 477 440 442T394 377T335 321T276 278Q257 265 233 247T186 207T148 159T132 103V77H456V0H42V81Q42 123 56 159T94 226T149 283T214 333Q243 351 270 372T320 415T355 462T368 511Q368
538 357 557T326 589T284 608T236 614Q194 614 158 600T95 562L50 627Q84 656 131 676T236 696Q278 696 318 686T389 655T439 599T458 515Z" />
<glyph unicode="3" glyph-name="three" horiz-adv-x="500" d="M226 695Q263 695 299 686T365 657T413 602T431 519Q431 468 407 426T334 365Q358 355 376 338T407 298T426 251T433 202Q433 150 415 111T366 46T295 6T209 -7Q146 -7 95 13T11 62L57 130Q86 104
126 89T204 74Q268 74 306 105T345 194Q345 251 314 286T233 321H155V398H235Q254 398 273 405T308 426T333 463T343 515Q343 542 332 561T303 592T261 609T214 614Q177 614 139 598T73 559L26 625Q58 653 110 674T226 695Z" />
<glyph unicode="4" glyph-name="four" horiz-adv-x="500" d="M414 106V0H326V106H26V180Q83 306 140 434T255 689H347L123 184H326V390H414V184H473V106H414Z" />
<glyph unicode="5" glyph-name="five" horiz-adv-x="500" d="M453 177Q453 135 436 102T389 44T320 8T238 -5Q173 -5 127 15T47 65L97 134Q160 76 236 76Q250 76 272 80T315 97T351 132T366 189V278Q366 328 341 352T276 376Q260 376 240 370T200 356T163 337T134
317L53 349V689H433V608H142V412Q180 438 218 451T285 464Q324 464 355 452T407 416T441 360T453 288V177V177Z" />
<glyph unicode="6" glyph-name="six" horiz-adv-x="500" d="M44 513Q44 556 61 590T106 647T173 683T254 696Q319 696 364 676T443 626L393 556Q362 584 329 598T256 613Q237 613 216 607T176 587T145 551T132 495V382Q180 413 220 425T291 438Q329 438 359 425T411
389T444 333T456 261V179Q456 136 439 102T394 44T328 8T249 -5Q205 -5 168 7T103 42T60 98T44 175V513ZM368 253Q368 305 343 329T279 353Q244 353 209 338T132 296V194Q132 162 143 140T171 103T208 83T249 76Q268 76 289 82T328 103T356 140T368 194V253Z" />
<glyph unicode="7" glyph-name="seven" horiz-adv-x="500" d="M203 0H109L357 609H128V506H45V689H455V612L203 0Z" />
<glyph unicode="8" glyph-name="eight" horiz-adv-x="500" d="M249 695Q287 695 323 683T389 646T435 585T453 499Q453 451 432 411T370 351Q396 340 414 323T444 285T461 241T467 195Q467 143 448 105T398 43T328 6T248 -6Q204 -6 165 6T96 42T49 102T31 189Q31
215 39 240T60 286T92 325T132 351Q90 367 68 408T46 500Q46 548 63 584T110 645T175 682T249 695ZM250 612Q228 612 207 605T169 584T142 549T132 500Q132 474 142 453T168 418T206 395T250 387Q272 387 293 395T331 418T357 454T367 501Q367 528 358 549T332
584T295 605T250 612ZM250 307Q224 307 201 299T161 276T134 240T123 191Q123 136 156 106T250 76Q308 76 342 106T376 193Q376 219 366 240T339 276T299 299T250 307Z" />
<glyph unicode="9" glyph-name="nine" horiz-adv-x="500" d="M447 177Q447 134 430 100T385 43T318 8T237 -5Q171 -5 126 15T48 65L98 135Q129 107 162 93T234 78Q253 78 274 84T314 104T345 140T358 196V312Q309 283 270 270T200 257Q123 257 79 303T35 434V511Q35
554 52 588T97 647T163 683T242 696Q282 696 319 684T384 649T430 593T447 516V177ZM122 442Q122 389 148 366T212 342Q247 342 282 357T358 398V497Q358 529 348 551T320 587T283 607T242 614Q222 614 201 608T163 587T134 551T122 497V442Z" />
<glyph unicode=":" glyph-name="colon" horiz-adv-x="250" d="M65 55Q65 76 79 94T122 112Q151 112 167 94T183 55Q183 30 167 13T122 -5Q94 -5 80 12T65 55ZM65 358Q65 379 79 397T122 415Q151 415 167 397T183 358Q183 333 167 316T122 298Q94 298 80 315T65 358Z" />
<glyph unicode=";" glyph-name="semicolon" horiz-adv-x="250" d="M65 358Q65 379 79 397T122 415Q151 415 167 397T183 358Q183 333 167 316T122 298Q94 298 80 315T65 358ZM60 52Q60 74 76 92T120 110Q139 110 152 103T173 84T184 58T188 30Q188 2 179 -23T156
-70T122 -107T83 -133L53 -94Q76 -77 90 -57T106 -6Q85 -4 73 12T60 52Z" />
<glyph unicode="&lt;" glyph-name="less" horiz-adv-x="500" d="M453 63L46 265V325L453 528V457L127 295L453 134V63Z" />
<glyph unicode="=" glyph-name="equal" horiz-adv-x="500" d="M29 357V424H470V357H29ZM29 165V232H470V165H29Z" />
<glyph unicode="&gt;" glyph-name="greater" horiz-adv-x="500" d="M46 134L372 295L46 457V528L453 325V265L46 63V134Z" />
<glyph unicode="?" glyph-name="question" horiz-adv-x="459" d="M217 700Q257 700 291 687T352 650T393 595T408 525Q408 482 387 445T339 372T291 303T269 235V190H183V232Q183 267 192 294T216 344T246 387T277 427T300 468T310 517Q310 559 282 587T208 616Q170
616 135 604T73 569L29 639Q73 672 119 686T217 700ZM171 55Q171 76 185 94T228 112Q257 112 273 94T289 55Q289 30 273 13T228 -5Q200 -5 186 12T171 55Z" />
<glyph unicode="@" glyph-name="at" horiz-adv-x="832" d="M803 371Q803 318 788 278T749 212T696 173T640 160Q595 160 567 174T523 212Q491 195 455 180T381 165Q325 165 292 197T258 284Q258 317 272 339T308 375T354 395T398 401H508V424Q508 467 482 483T415
499Q396 499 371 493T316 463L279 513Q317 543 351 553T417 564Q492 564 534 529T577 424V274Q577 245 593 233T638 221Q656 221 674 230T706 258T730 305T739 372Q739 432 719 485T660 577T567 639T444 662Q376 662 315 638T209 573T137 475T110 353Q110 287 133
231T198 134T297 70T422 47Q451 47 480 52T550 74L572 13Q524 -6 486 -10T422 -15Q341 -15 272 12T153 88T74 204T46 352Q46 432 78 500T164 617T290 695T444 723Q529 723 595 695T708 619T778 507T803 371ZM508 341H409Q397 341 383 340T357 332T337 315T329 284Q329
257 347 243T394 229Q409 229 424 233T455 243T483 257T508 271V341Z" />
<glyph unicode="A" glyph-name="A" horiz-adv-x="597" d="M490 0L436 155H162L109 0H13L253 689H346L587 0H490ZM297 563L247 403L192 239H407L352 403L301 563H297Z" />
<glyph unicode="B" glyph-name="B" horiz-adv-x="593" d="M550 202Q550 165 538 129T501 65T439 18T354 0H57V689H343Q390 689 426 674T488 634T526 576T539 507Q539 466 520 427T454 361Q504 335 527 291T550 202ZM448 505Q448 559 414 582T325 605H150V402H333Q356
402 377 408T413 428T438 460T448 505ZM459 202Q459 230 449 251T421 288T381 311T334 319H150V83H336Q397 83 428 114T459 202Z" />
<glyph unicode="C" glyph-name="C" horiz-adv-x="527" d="M303 696Q359 696 408 681T496 634L450 562Q423 585 383 598T303 611Q274 611 246 602T196 574T161 525T147 452V237Q147 195 161 165T197 115T246 87T301 78Q340 78 380 89T453 126L497 55Q465 29 414
11T303 -7Q253 -7 208 8T128 53T74 124T54 219V471Q54 523 74 564T129 635T208 680T303 696Z" />
<glyph unicode="D" glyph-name="D" horiz-adv-x="605" d="M552 224Q552 174 534 133T483 62T408 16T316 0H58V689H317Q366 689 409 674T484 629T534 558T552 464V224ZM458 448Q458 491 444 521T407 570T355 597T295 605H150V82H295Q323 82 352 90T405 117T443
165T458 239V448Z" />
<glyph unicode="E" glyph-name="E" horiz-adv-x="557" d="M61 0V689H521V605H153V386H468V303H153V83H521V0H61Z" />
<glyph unicode="F" glyph-name="F" horiz-adv-x="535" d="M153 605V387H468V303H153V0H61V689H521V605H153Z" />
<glyph unicode="G" glyph-name="G" horiz-adv-x="580" d="M531 83Q510 59 483 42T427 14T367 -2T308 -7Q258 -7 212 8T131 53T75 124T54 219V471Q54 523 75 564T132 635T215 680T316 696Q373 696 421 681T509 634L463 562Q436 585 396 598T316 611Q284 611 254
602T200 574T162 525T147 452V237Q147 195 160 165T196 115T248 87T308 78Q331 78 367 84T440 119V280H330V363H531V83V83Z" />
<glyph unicode="H" glyph-name="H" horiz-adv-x="617" d="M469 0V307H146V0H54V689H146V391H469V689H563V0H469Z" />
<glyph unicode="I" glyph-name="I" horiz-adv-x="252" d="M80 0V689H172V0H80Z" />
<glyph unicode="J" glyph-name="J" horiz-adv-x="521" d="M440 222Q440 169 422 127T371 55T295 9T204 -7Q157 -7 105 6T15 45L58 119Q93 97 125 88T189 78Q224 78 253 87T304 115T336 166T348 242V689H440V222V222Z" />
<glyph unicode="K" glyph-name="K" horiz-adv-x="572" d="M156 331L448 689H559L337 417L582 0H474L275 341L149 191V0H57V689H149V331H156Z" />
<glyph unicode="L" glyph-name="L" horiz-adv-x="535" d="M66 0V689H158V83H526V0H66Z" />
<glyph unicode="M" glyph-name="M" horiz-adv-x="742" d="M378 225L463 408L600 689H685V0H593V469H588L525 336L409 102H340L230 317L155 469H150V0H58V689H146L285 408L372 225H378Z" />
<glyph unicode="N" glyph-name="N" horiz-adv-x="645" d="M494 173V689H586V0H497L256 360L158 511H151V0H59V689H146L395 316L487 173H494Z" />
<glyph unicode="O" glyph-name="O" horiz-adv-x="613" d="M561 225Q561 172 542 129T488 56T407 10T306 -7Q250 -7 203 9T123 56T71 129T52 225V463Q52 515 70 558T122 631T203 679T306 696Q361 696 408 679T489 632T542 558T561 463V225ZM468 452Q468 494 455
524T420 573T369 602T306 611Q273 611 244 602T193 574T158 524T145 452V236Q145 194 158 164T193 115T244 87T306 78Q339 78 368 87T419 115T455 164T468 236V452Z" />
<glyph unicode="P" glyph-name="P" horiz-adv-x="554" d="M535 483Q535 446 522 410T483 344T422 296T340 277H146V0H54V689H340Q390 689 426 671T487 623T523 557T535 483ZM444 483Q444 539 410 572T321 605H146V362H321Q375 362 409 394T444 483Z" />
<glyph unicode="Q" glyph-name="Q" horiz-adv-x="628" d="M445 -175Q353 -186 310 -150T267 -51V-4Q220 2 181 20T115 68T72 137T57 225V463Q57 515 75 558T127 631T208 679T311 696Q366 696 413 679T494 632T547 558T566 463V225Q566 177 550 137T505 68T437
20T351 -4V-23Q351 -49 356 -65T372 -90T401 -101T445 -102V-175ZM473 452Q473 494 460 524T425 573T374 602T311 611Q278 611 249 602T198 574T163 524T150 452V236Q150 194 163 164T198 115T249 87T311 78Q344 78 373 87T424 115T460 164T473 236V452Z" />
<glyph unicode="R" glyph-name="R" horiz-adv-x="572" d="M343 689Q395 689 432 671T493 623T528 557T539 483Q539 454 531 426T507 372T469 327T417 294L546 0H444L327 277H149V0H57V689H343ZM447 483Q447 539 413 572T324 605H149V362H324Q378 362 412 394T447 483Z" />
<glyph unicode="S" glyph-name="S" horiz-adv-x="556" d="M525 191Q525 145 508 109T458 47T380 8T280 -6Q209 -6 147 14T26 79L78 145Q124 113 175 95T281 77Q351 77 391 107T431 191Q431 225 416 246T376 281T322 301T264 314Q223 322 185 334T118 369T71 423T53
504Q53 547 68 583T113 646T183 687T276 702Q336 702 393 691T502 648L459 570Q415 596 368 607T275 618Q248 618 224 611T182 590T154 553T143 502Q143 473 158 455T196 426T246 407T297 395Q340 385 381 373T454 338T505 281T525 191Z" />
<glyph unicode="T" glyph-name="T" horiz-adv-x="522" d="M308 604V0H215V604H16V689H506V604H308Z" />
<glyph unicode="U" glyph-name="U" horiz-adv-x="610" d="M561 218Q561 165 541 123T485 52T404 8T306 -7Q254 -7 208 8T127 52T72 123T52 218V689H145V235Q145 193 158 163T193 114T244 86T306 77Q337 77 366 86T418 114T454 163T468 235V689H561V218V218Z" />
<glyph unicode="V" glyph-name="V" horiz-adv-x="565" d="M285 142L355 378L453 689H554L332 0H232L10 689H111L212 366L279 142H285Z" />
<glyph unicode="W" glyph-name="W" horiz-adv-x="862" d="M428 524L376 308L296 0H192L10 689H110L188 372L242 144H247L302 373L382 689H479L561 363L614 144H619L671 366L751 689H851L669 0H565L484 312L434 524H428Z" />
<glyph unicode="X" glyph-name="X" horiz-adv-x="550" d="M435 0L275 278L116 0H9L223 353L23 689H130L275 429L421 689H528L328 353L542 0H435Z" />
<glyph unicode="Y" glyph-name="Y" horiz-adv-x="537" d="M272 364L346 530L424 689H524L315 265V0H222V264L12 689H113L193 525L265 364H272Z" />
<glyph unicode="Z" glyph-name="Z" horiz-adv-x="523" d="M488 610L144 83H487V0H37V81L377 605H51V689H488V610Z" />
<glyph unicode="[" glyph-name="bracketleft" horiz-adv-x="261" d="M73 -105V698H242V642H148V-49H242V-105H73Z" />
<glyph unicode="\" glyph-name="backslash" horiz-adv-x="317" d="M-1 725H64L315 -42H250L-1 725Z" />
<glyph unicode="]" glyph-name="bracketright" horiz-adv-x="261" d="M27 -105V-49H120V642H27V698H195V-105H27Z" />
<glyph unicode="^" glyph-name="asciicircum" horiz-adv-x="500" d="M23 328L225 695H285L488 328H417L255 623L94 328H23Z" />
<glyph unicode="_" glyph-name="underscore" horiz-adv-x="500" d="M0 -129V-69H500V-129H0Z" />
<glyph unicode="`" glyph-name="grave" horiz-adv-x="491" d="M294 551L194 723L275 748L347 571L294 551Z" />
<glyph unicode="a" glyph-name="a" horiz-adv-x="496" d="M360 48Q301 15 264 6T196 -4Q124 -4 81 36T38 145Q38 186 56 214T102 259T161 284T218 292H363V330Q363 382 334 402T251 423Q225 423 188 416T112 377L70 442Q118 479 167 490T258 501Q355 501 401 459T448
328V0H373L363 46L360 48ZM363 221H232Q216 221 198 219T163 209T137 186T126 145Q126 109 150 91T213 73Q232 73 252 78T292 92T330 109T363 127V221Z" />
<glyph unicode="b" glyph-name="b" horiz-adv-x="501" d="M454 172Q454 87 408 41T287 -5Q261 -5 224 4T131 47L121 0H45V716H131V444Q193 479 229 490T291 501Q372 501 413 455T454 324V172ZM368 313Q368 371 344 394T280 417Q249 417 210 399T131 356V130Q147
119 167 109T207 92T247 81T280 77Q319 77 343 101T368 182V313Z" />
<glyph unicode="c" glyph-name="c" horiz-adv-x="429" d="M243 501Q286 501 330 490T410 440L359 375Q326 406 298 413T247 421Q228 421 208 415T171 395T144 359T133 304V192Q133 160 143 138T169 101T205 81T247 75Q269 75 300 84T355 116L408 56Q373 21 331
8T245 -5Q201 -5 165 8T103 44T62 99T47 171V318Q47 360 63 394T106 452T168 488T243 501Z" />
<glyph unicode="d" glyph-name="d" horiz-adv-x="501" d="M380 0L370 52Q311 17 276 6T213 -5Q177 -5 147 5T94 37T60 92T47 172V324Q47 366 60 399T97 454T153 489T221 501Q248 501 284 495T370 473V716H455V0H380ZM370 389Q330 403 295 411T229 420Q189 421
161 397T133 314V177Q133 120 157 99T221 77Q235 77 254 81T293 94T333 112T370 135V389Z" />
<glyph unicode="e" glyph-name="e" horiz-adv-x="483" d="M133 216V183Q133 153 143 133T170 99T210 79T257 73Q282 73 315 83T379 122L433 63Q395 24 349 10T255 -5Q213 -5 175 6T109 40T64 97T47 176V307Q47 351 62 387T103 448T166 486T247 500Q291 500 328
487T391 450T432 392T447 314V216H133ZM360 305Q360 336 351 358T327 394T291 415T247 422Q224 422 204 415T168 394T143 359T134 308V286H360V305Z" />
<glyph unicode="f" glyph-name="f" horiz-adv-x="303" d="M172 419V0H87V419H26V496H87V586Q87 652 125 684T217 716H306V640H225Q193 640 183 621T172 576V496H306V419H172Z" />
<glyph unicode="g" glyph-name="g" horiz-adv-x="499" d="M209 501Q236 501 272 490T365 443L375 496H451V-30Q451 -73 434 -106T387 -161T319 -195T240 -207Q196 -207 149 -192T61 -142L114 -79Q126 -90 141 -99T174 -114T208 -123T239 -127Q263 -127 285 -121T326
-101T354 -65T365 -11V47Q315 16 276 6T209 -5Q136 -5 90 40T43 171V324Q43 409 89 455T209 501ZM365 356Q328 383 287 400T217 417Q176 417 153 394T129 312V182Q129 125 153 101T217 77Q248 77 288 91T365 129V356Z" />
<glyph unicode="h" glyph-name="h" horiz-adv-x="497" d="M296 501Q377 501 416 455T456 324V0H370V313Q370 371 345 394T282 417Q251 417 211 402T133 362V0H47V716H133V440Q193 479 231 490T296 501Z" />
<glyph unicode="i" glyph-name="i" horiz-adv-x="227" d="M167 646Q167 624 151 608T113 592Q92 592 76 608T60 646Q60 668 76 683T113 699Q135 699 151 684T167 646ZM71 0V496H156V0H71Z" />
<glyph unicode="j" glyph-name="j" horiz-adv-x="243" d="M183 646Q183 625 169 610T133 595Q112 595 98 610T83 646Q83 667 97 681T133 696Q154 696 168 682T183 646ZM91 495H176V-52Q176 -135 138 -169T31 -204H-18V-126H21Q61 -126 76 -109T91 -40V495Z" />
<glyph unicode="k" glyph-name="k" horiz-adv-x="481" d="M46 0V716H131V326H204Q235 326 260 337T305 390L360 498H456L396 372Q382 343 366 323T320 292Q341 285 355 274T378 248T393 218T404 186L466 0H371L319 159Q311 184 302 200T281 226T254 239T219 243H131V0H46Z"
/>
<glyph unicode="l" glyph-name="l" horiz-adv-x="277" d="M168 132Q168 93 185 84T244 76L246 -2Q232 -4 220 -5T196 -6Q161 -6 140 2T105 27T88 67T83 121V716H168V132Z" />
<glyph unicode="m" glyph-name="m" horiz-adv-x="757" d="M275 501Q320 501 352 482T401 425Q431 449 455 464T498 487T532 498T561 501Q632 501 673 462T714 339V0H628V321Q628 371 609 394T546 417Q520 417 489 401T418 355Q420 346 420 339T421 322V0H335V324Q335
375 314 396T260 417Q229 417 200 406T128 365V0H42V496H118L127 439Q154 459 175 471T214 490T246 499T275 501Z" />
<glyph unicode="n" glyph-name="n" horiz-adv-x="497" d="M298 501Q371 501 412 455T453 324V0H367V313Q367 371 342 394T279 417Q249 417 209 402T130 362V0H44V496H120L130 441Q162 461 187 473T233 491T269 499T298 501Z" />
<glyph unicode="o" glyph-name="o" horiz-adv-x="505" d="M458 175Q458 132 442 99T397 42T331 7T252 -5Q209 -5 172 7T108 42T64 98T48 175V319Q48 362 64 395T108 452T173 488T253 501Q298 501 335 489T400 453T443 396T458 319V175ZM373 304Q373 336 362 358T334
395T295 415T254 421Q233 421 212 415T174 395T145 359T134 304V192Q134 160 143 138T169 101T207 81T254 75Q274 75 295 81T333 101T362 137T373 192V304Z" />
<glyph unicode="p" glyph-name="p" horiz-adv-x="503" d="M125 495L135 443Q194 478 229 489T292 500Q365 500 411 457T458 323V171Q458 86 412 40T284 -6Q257 -6 221 -1T135 25V-198H50V495H125ZM135 106Q181 87 213 81T276 75Q296 75 313 79T344 95T364 126T372
175V317Q372 374 348 395T284 417Q270 417 251 412T212 399T171 381T135 359V106Z" />
<glyph unicode="q" glyph-name="q" horiz-adv-x="497" d="M368 -199V45Q311 13 275 4T211 -5Q138 -5 92 41T45 172V324Q45 409 91 455T211 501Q238 501 274 491T369 447L379 495H453V-199H368ZM368 364Q329 388 288 403T219 419Q179 419 155 395T131 314V183Q131
125 156 102T219 79Q250 79 288 92T368 132V364Z" />
<glyph unicode="r" glyph-name="r" horiz-adv-x="332" d="M328 411Q261 405 218 388T151 355V0H65V496H141L150 423H151Q164 436 184 450T227 475T276 494T328 502V411Z" />
<glyph unicode="s" glyph-name="s" horiz-adv-x="454" d="M425 142Q425 107 410 80T369 34T307 4T228 -6Q176 -6 127 7T28 59L75 122Q112 91 151 80T236 68Q254 68 272 72T305 86T329 109T338 144Q338 176 315 190T257 210Q219 216 182 223T114 246T65 286T46
352Q46 386 60 414T99 461T156 490T227 501Q283 501 326 490T409 449L366 385Q331 407 298 416T227 425Q183 425 156 405T129 353Q129 327 151 314T206 294T277 280T348 258T403 216T425 142Z" />
<glyph unicode="t" glyph-name="t" horiz-adv-x="363" d="M356 12Q327 2 296 -1T249 -5Q170 -5 135 31T100 151V419H30V496H102L122 611H185V496H323V419H185V177Q185 147 190 128T205 97T229 81T261 77Q278 77 298 79T342 85L356 12Z" />
<glyph unicode="u" glyph-name="u" horiz-adv-x="505" d="M382 0L372 53Q341 34 318 23T276 5T243 -3T215 -5Q136 -5 92 41T48 172V496H134V181Q134 123 159 100T223 77Q253 77 292 93T372 138V496H458V0H382Z" />
<glyph unicode="v" glyph-name="v" horiz-adv-x="457" d="M234 116L290 299L354 495H447L271 0H187L10 495H104L169 301L228 116H234Z" />
<glyph unicode="w" glyph-name="w" horiz-adv-x="702" d="M352 340L302 182L243 0H161L20 496H109L155 316L202 130H206L265 311L312 448H399L451 292L503 130H508L551 305L599 496H684L550 0H468L407 185L356 340H352Z" />
<glyph unicode="x" glyph-name="x" horiz-adv-x="434" d="M325 0L214 186L100 0H-1L167 254L9 496H112L215 323L320 496H422L262 256L429 0H325Z" />
<glyph unicode="y" glyph-name="y" horiz-adv-x="468" d="M113 -201L186 9L144 44L10 496H103L163 278L218 80H221L291 278L366 496H458L205 -201H113Z" />
<glyph unicode="z" glyph-name="z" horiz-adv-x="450" d="M41 0V68L302 419H55V495H411V425L150 76H411V0H41Z" />
<glyph unicode="{" glyph-name="braceleft" horiz-adv-x="261" d="M185 -103Q146 -103 120 -78T93 4V143Q93 196 74 231T15 271V322Q35 325 49 336T74 365T88 405T93 452V588Q93 638 119 667T185 696H253V642H212Q198 642 190 634T176 614T168 586T166 555V430Q166
398 157 375T136 335T112 311T91 299V296Q99 293 111 285T136 260T157 221T166 167V37Q166 22 168 7T175 -21T189 -42T212 -50H253V-103H185Z" />
<glyph unicode="|" glyph-name="bar" horiz-adv-x="204" d="M70 -162V716H135V-162H70Z" />
<glyph unicode="}" glyph-name="braceright" horiz-adv-x="261" d="M249 271Q209 266 191 231T172 143V4Q172 -45 146 -74T80 -103H11V-50H53Q66 -50 75 -42T89 -22T96 6T99 37V167Q99 198 107 221T128 260T153 284T174 296V299Q166 302 153 310T128 335T108 374T99
430V555Q99 570 99 585T94 613T80 634T53 642H11V692H77Q125 692 148 663T172 588V452Q172 428 176 406T190 366T214 337T249 322V271V271Z" />
<glyph unicode="~" glyph-name="asciitilde" horiz-adv-x="500" d="M477 312Q449 267 419 246T342 224Q322 224 299 233T251 255T204 276T159 286Q132 286 116 274T79 235L26 274Q53 320 87 339T161 358Q184 358 208 349T255 328T301 307T345 297Q370 297 387
310T424 351L477 312V312Z" />
</font>
</defs>
</svg>
