<?xml version="1.0" standalone="no"?> <!DOCTYPE svg PUBLIC "-//W3C//DTD SVG 1.0//EN" "http://www.w3.org/TR/2001/REC-SVG-20010904/DTD/svg10.dtd" > <svg xmlns="http://www.w3.org/2000/svg" width="100%" height="100%">
<defs >
<font id="pfdindisplayprolight" horiz-adv-x="665" ><font-face
    font-family="PFDinDisplayPro-Light"
    units-per-em="1000"
    panose-1="2 0 5 6 0 0 0 2 0 4"
    ascent="750"
    descent="-250"
    alphabetic="0" />
<missing-glyph horiz-adv-x="436" d="M0 700H436V0H0V700ZM368 659H68L218 387L368 659ZM396 72V629L243 350L396 72ZM368 41L218 313L68 41H368ZM40 73L193 350L40 627V73Z" />
<glyph unicode=" " glyph-name="space" horiz-adv-x="223" />
<glyph unicode="!" glyph-name="exclam" horiz-adv-x="224" d="M83 170Q82 298 81 433T77 696H146L139 170H83ZM64 45Q64 62 76 76T111 91Q134 91 147 77T161 45Q161 24 148 11T111 -3Q88 -3 76 10T64 45Z" />
<glyph unicode="&quot;" glyph-name="quotedbl" horiz-adv-x="276" d="M165 514V696H218V514H165ZM56 514V696H110V514H56Z" />
<glyph unicode="#" glyph-name="numbersign" horiz-adv-x="509" d="M381 431L358 268H457V218H352L322 0H266L297 218H169L139 0H83L114 218H21V268H121L143 431H49V481H151L181 695H233L205 481H334L364 695H417L388 481H485V431H381ZM198 431L176 268H304L326 431H198Z" />
<glyph unicode="$" glyph-name="dollar" horiz-adv-x="487" d="M266 772Q266 752 266 731T265 689Q310 687 353 676T438 641L408 584Q370 606 329 617T244 629Q217 629 193 621T149 598T118 558T106 500Q106 468 120 448T157 414T207 392T260 378Q301 369 338
357T403 323T448 269T465 185Q465 143 451 110T410 52T347 14T265 -2L266 -97H218V-2Q164 1 116 18T24 71L60 122Q102 93 149 76T247 58Q317 58 358 91T399 185Q399 221 385 244T347 281T295 303T238 317Q202 324 167 336T103 370T58 423T40 502Q40 541 53 573T90
630T146 670T218 688V772H266V772Z" />
<glyph unicode="%" glyph-name="percent" horiz-adv-x="780" d="M321 386Q321 360 311 339T282 303T238 280T184 272Q154 272 129 280T86 303T57 339T46 386V580Q46 605 57 626T87 662T131 685T184 693Q212 693 237 685T281 662T310 626T321 580V386ZM266 572Q266
591 258 604T238 626T212 638T184 642Q171 642 157 639T131 627T111 605T103 572V393Q103 373 111 360T131 339T157 327T184 323Q197 323 211 326T238 338T258 360T266 393V572ZM733 109Q733 83 723 63T694 27T650 4T596 -4Q566 -4 541 4T498 27T469 63T458 110V304Q458
329 469 350T499 386T543 409T596 418Q624 418 649 410T693 386T722 350T733 304V109ZM678 295Q678 315 670 328T650 350T624 362T596 366Q583 366 569 363T543 351T523 329T515 295V116Q515 96 523 83T543 62T569 50T596 46Q609 46 623 49T650 61T670 83T678 116V295ZM204
-17H151L575 713H629L204 -17Z" />
<glyph unicode="&amp;" glyph-name="ampersand" horiz-adv-x="811" d="M733 -50Q687 -30 641 2T559 70Q511 33 453 13T338 -7Q294 -7 256 5T188 41T143 102T126 186Q126 257 172 309T296 405Q265 447 252 479T239 542Q239 572 248 598T275 643T318 674T376 686Q407
686 433 676T477 647T506 606T517 555Q517 499 480 459T380 383Q417 327 466 264T566 144Q620 196 654 265T688 416Q688 482 669 542T611 647T516 719T384 746Q320 746 268 727T178 674T119 597T98 505Q98 470 109 435T144 364L98 335Q70 375 57 417T44 501Q44
559 68 613T136 708T243 773T381 798Q469 798 536 768T649 685T718 564T742 416Q742 322 703 243T603 107Q641 71 679 44T759 -1L733 -50ZM459 555Q459 589 434 610T376 632Q355 632 341 624T317 602T303 574T299 546Q299 520 313 492T350 432Q372 444 392 456T427
484T450 516T459 555ZM522 109Q495 138 468 170T417 234T370 297T328 358Q298 342 272 324T226 285T195 240T183 188Q183 152 195 125T227 80T274 53T332 44Q377 44 426 60T522 109Z" />
<glyph unicode="&apos;" glyph-name="quotesingle" horiz-adv-x="234" d="M94 514V696H147V514H94Z" />
<glyph unicode="(" glyph-name="parenleft" horiz-adv-x="276" d="M234 -120Q199 -80 167 -32T111 70T73 182T58 303Q58 364 71 422T108 535T163 637T231 725L265 704Q234 662 209 614T166 514T139 411T129 308Q129 253 139 199T167 92T209 -7T264 -96L234 -120V-120Z" />
<glyph unicode=")" glyph-name="parenright" horiz-adv-x="276" d="M23 -97Q83 -14 121 91T159 307Q159 358 150 410T122 514T79 613T23 703L57 724Q93 684 124 636T179 534T216 422T230 302Q230 241 216 182T177 69T122 -33T55 -120L23 -97Z" />
<glyph unicode="*" glyph-name="asterisk" horiz-adv-x="352" d="M290 444Q280 436 267 426T244 409L178 515Q173 507 164 493T145 462T127 432T113 408L67 444L145 537Q136 539 120 543T87 553T54 563T29 570Q33 581 37 596T45 624L159 576L150 698H206L197 576Q206
580 221 586T254 600T287 613T312 624L328 569L210 537L290 444Z" />
<glyph unicode="+" glyph-name="plus" horiz-adv-x="487" d="M269 262V69H218V262H29V313H218V504H269V313H457V262H269Z" />
<glyph unicode="," glyph-name="comma" horiz-adv-x="225" d="M62 43Q62 62 76 76T113 90Q142 90 155 70T169 23Q169 0 162 -21T143 -61T115 -93T82 -115L58 -86Q80 -70 92 -51T106 -6Q86 -5 74 9T62 43Z" />
<glyph unicode="-" glyph-name="hyphen" horiz-adv-x="381" d="M52 237V297H329V237H52Z" />
<glyph unicode="." glyph-name="period" horiz-adv-x="204" d="M54 46Q54 63 67 78T103 93Q126 93 139 78T153 46Q153 25 140 10T103 -5Q80 -5 67 9T54 46Z" />
<glyph unicode="/" glyph-name="slash" horiz-adv-x="304" d="M53 -34H0L249 722H301L53 -34Z" />
<glyph unicode="0" glyph-name="zero" horiz-adv-x="487" d="M449 172Q449 131 432 99T387 43T321 8T244 -5Q203 -5 166 7T101 43T56 99T39 172V516Q39 557 56 590T102 646T168 683T244 696Q284 696 321 683T386 647T432 590T449 516V172ZM382 499Q382 536 369
561T335 603T291 626T244 633Q222 633 198 626T153 603T120 562T106 499V189Q106 152 119 127T153 86T197 63T244 56Q266 56 290 63T335 85T368 126T382 189V499Z" />
<glyph unicode="1" glyph-name="one" horiz-adv-x="487" d="M259 0V608Q251 602 237 591T207 567T176 542T154 524L118 573Q130 583 149 599T190 631T230 663T262 689H326V0H259Z" />
<glyph unicode="2" glyph-name="two" horiz-adv-x="487" d="M447 519Q447 483 431 451T391 389T336 336T276 292Q253 276 224 256T170 210T127 153T109 86V59H445V0H40V70Q40 115 55 152T97 222T157 282T227 333Q257 352 284 373T332 417T365 464T378 515Q378
546 366 568T333 605T286 626T233 633Q187 633 150 618T84 580Q76 591 66 605T48 630Q80 656 127 676T231 696Q272 696 311 687T380 656T428 601T447 519Z" />
<glyph unicode="3" glyph-name="three" horiz-adv-x="487" d="M227 695Q263 695 298 686T362 655T407 601T425 520Q425 494 419 470T400 425T368 388T323 363Q350 353 370 336T402 296T421 248T428 197Q428 147 411 109T365 46T297 7T215 -7Q152 -7 104 13T25
60Q33 72 44 86T63 112Q92 89 131 72T211 55Q278 55 319 91T361 191Q361 222 351 247T325 291T286 318T240 328H163V388H241Q259 388 279 396T317 419T346 459T357 517Q357 549 346 571T315 607T272 627T224 633Q184 633 143 617T74 577Q66 588 55 602T36 628Q72
658 119 676T227 695Z" />
<glyph unicode="4" glyph-name="four" horiz-adv-x="487" d="M399 109V0H331V109H26V168Q84 298 142 428T258 689H329L99 170H331V381H399V170H459V109H399Z" />
<glyph unicode="5" glyph-name="five" horiz-adv-x="487" d="M441 173Q441 133 425 100T380 44T313 8T231 -5Q167 -5 123 15T47 63L86 115Q117 87 152 72T230 56Q247 56 272 61T319 81T358 120T374 184V278Q374 335 347 363T273 391Q255 391 234 385T191 370T149
349T115 327L51 352V689H422V627H119V400Q164 428 206 443T279 458Q355 458 398 412T441 287V173V173Z" />
<glyph unicode="6" glyph-name="six" horiz-adv-x="487" d="M43 515Q43 557 59 590T104 647T169 683T248 696Q311 696 355 676T429 628L389 575Q360 603 326 617T249 632Q228 632 204 625T159 602T124 561T110 498V366Q165 400 209 415T285 430Q360 430 402 383T444
258V177Q444 135 428 102T385 45T320 8T242 -5Q200 -5 164 7T101 42T59 98T43 173V515ZM377 250Q377 309 349 336T277 364Q239 364 197 346T110 299V189Q110 153 122 128T154 87T197 64T242 56Q264 56 287 63T331 87T364 128T377 189V250Z" />
<glyph unicode="7" glyph-name="seven" horiz-adv-x="487" d="M186 0H114L369 628H107V522H43V689H443V628L186 0Z" />
<glyph unicode="8" glyph-name="eight" horiz-adv-x="487" d="M243 695Q281 695 317 683T381 646T426 587T443 505Q443 457 419 415T345 352Q376 341 397 323T431 284T449 238T455 192Q455 142 437 105T388 43T320 6T241 -6Q198 -6 160 5T93 41T47 101T30 186Q30
211 37 236T59 283T94 324T141 352Q117 361 99 376T69 412T51 455T45 504Q45 551 62 586T106 646T169 682T243 695ZM244 632Q219 632 195 624T152 600T122 560T110 505Q110 476 121 453T150 414T193 389T243 380Q268 380 292 389T334 414T364 454T376 506Q376 537
365 560T336 600T293 624T244 632ZM243 319Q214 319 188 310T142 283T111 241T99 187Q99 127 137 92T243 56Q306 56 345 91T385 189Q385 218 374 242T344 283T299 309T243 319Z" />
<glyph unicode="9" glyph-name="nine" horiz-adv-x="487" d="M439 175Q439 133 423 100T378 44T313 8T234 -5Q170 -5 126 15T53 63L93 116Q122 88 156 74T232 59Q253 59 277 66T322 88T356 129T370 193V327Q315 294 272 279T197 263Q122 263 80 308T37 436V513Q37
555 53 588T97 646T162 683T240 696Q280 696 316 684T379 648T423 592T439 518V175ZM104 443Q104 384 132 357T205 329Q243 329 284 348T370 394V502Q370 538 358 563T327 603T285 626T240 634Q218 634 194 627T150 603T117 562T104 502V443Z" />
<glyph unicode=":" glyph-name="colon" horiz-adv-x="225" d="M62 46Q62 63 74 78T110 93Q133 93 147 78T161 46Q161 25 148 10T111 -5Q88 -5 75 9T62 46ZM62 358Q62 376 74 391T110 406Q133 406 147 391T161 358Q161 337 148 322T111 307Q88 307 75 321T62 358Z" />
<glyph unicode=";" glyph-name="semicolon" horiz-adv-x="225" d="M62 358Q62 376 74 391T110 406Q133 406 147 391T161 358Q161 337 148 322T111 307Q88 307 75 321T62 358ZM58 43Q58 62 72 76T109 90Q138 90 151 70T165 23Q165 0 158 -21T139 -61T111 -93T78
-115L54 -86Q76 -70 88 -51T102 -6Q82 -5 70 9T58 43Z" />
<glyph unicode="&lt;" glyph-name="less" horiz-adv-x="487" d="M445 71L41 264V312L445 504V448L104 288Q114 284 140 272T201 243T274 208T347 173T408 145T445 128V71Z" />
<glyph unicode="=" glyph-name="equal" horiz-adv-x="487" d="M29 349V401H457V349H29ZM29 164V217H457V164H29Z" />
<glyph unicode="&gt;" glyph-name="greater" horiz-adv-x="487" d="M41 128Q51 132 77 144T138 173T211 207T284 242T344 271T381 288L41 448V504L445 312V264L41 71V128Z" />
<glyph unicode="?" glyph-name="question" horiz-adv-x="446" d="M208 699Q249 699 283 686T341 651T379 597T393 530Q393 486 371 448T321 375T272 304T249 229V175H185V228Q185 263 195 291T220 343T253 390T286 433T311 477T321 525Q321 573 289 605T200 637Q162
637 126 625T63 593L30 645Q73 674 116 686T208 699ZM172 45Q172 62 184 77T219 92Q242 92 255 77T269 45Q269 25 256 11T220 -4Q197 -4 185 10T172 45Z" />
<glyph unicode="@" glyph-name="at" horiz-adv-x="834" d="M798 366Q798 312 784 272T746 206T693 168T635 155Q603 155 572 168T528 212Q488 189 451 176T381 162Q327 162 293 192T259 276Q259 308 272 330T306 365T350 385T394 391H517V419Q517 445 510 462T489
488T456 502T415 506Q396 506 370 500T312 470L281 511Q317 538 351 548T417 558Q571 558 571 423V258Q572 238 588 221T639 203Q659 203 678 213T713 244T737 295T747 367Q747 430 726 484T666 578T570 641T444 664Q373 664 311 640T201 573T127 472T99 345Q99
276 123 218T190 116T292 49T421 25Q451 25 480 30T549 51L567 4Q522 -14 485 -19T421 -24Q340 -24 272 3T154 80T76 196T48 344Q48 424 79 491T165 608T291 685T444 713Q528 713 593 686T704 612T774 501T798 366ZM517 343H407Q393 343 377 341T348 332T325 312T316
277Q316 244 337 228T391 211Q421 211 455 226T517 260V343Z" />
<glyph unicode="A" glyph-name="A" horiz-adv-x="583" d="M493 0Q479 40 466 80T439 160H144L90 0H16Q76 174 135 344T255 689H329L569 0H493ZM290 598Q281 569 265 518T230 412T194 305T167 224H417Q408 254 391 305T355 411T319 518T293 598H290Z" />
<glyph unicode="B" glyph-name="B" horiz-adv-x="584" d="M540 195Q540 158 528 123T491 61T430 17T347 0H57V689H336Q384 689 420 675T480 636T516 579T529 511Q529 490 524 469T508 428T479 391T432 362Q461 350 481 332T515 291T534 243T540 195ZM458 509Q458
540 447 562T418 598T374 618T321 625H127V394H331Q355 394 378 401T419 423T447 458T458 509ZM470 195Q470 226 459 251T428 293T384 320T333 330H127V63H333Q396 63 433 96T470 195Z" />
<glyph unicode="C" glyph-name="C" horiz-adv-x="515" d="M298 696Q408 696 484 639L448 584Q418 607 379 619T298 631Q265 631 234 621T178 590T138 536T123 455V235Q123 188 138 155T178 100T234 68T296 57Q338 57 378 68T450 106L485 52Q456 29 407 11T298
-7Q245 -7 201 9T123 55T72 127T53 221V470Q53 521 72 562T124 634T201 680T298 696Z" />
<glyph unicode="D" glyph-name="D" horiz-adv-x="593" d="M543 224Q543 174 526 133T478 62T405 16T312 0H57V689H314Q365 689 407 673T479 628T526 557T543 464V224ZM471 451Q471 499 456 532T417 585T363 615T301 625H127V62H295Q326 62 357 71T414 101T455
155T471 236V451Z" />
<glyph unicode="E" glyph-name="E" horiz-adv-x="545" d="M59 0V689H511V625H129V379H457V315H129V63H511V0H59Z" />
<glyph unicode="F" glyph-name="F" horiz-adv-x="526" d="M129 625V379H457V315H129V0H59V689H511V625H129Z" />
<glyph unicode="G" glyph-name="G" horiz-adv-x="565" d="M513 78Q470 33 414 13T300 -7Q247 -7 202 9T123 55T70 127T51 221V470Q51 521 70 562T124 634T204 680T305 696Q359 696 406 682T491 639L455 584Q426 607 386 619T305 631Q270 631 238 621T179 590T138
536T122 455V235Q122 188 137 155T176 100T233 68T299 57Q323 57 362 65T443 106V288H328V353H513V78V78Z" />
<glyph unicode="H" glyph-name="H" horiz-adv-x="607" d="M480 0V318H124V0H54V689H124V382H480V689H553V0H480Z" />
<glyph unicode="I" glyph-name="I" horiz-adv-x="234" d="M82 0V689H152V0H82Z" />
<glyph unicode="J" glyph-name="J" horiz-adv-x="513" d="M430 223Q430 171 413 129T365 56T290 10T194 -7Q147 -7 100 5T20 41L54 97Q121 57 185 57Q223 57 255 67T310 99T347 155T360 238V689H430V223V223Z" />
<glyph unicode="K" glyph-name="K" horiz-adv-x="556" d="M130 297L448 689H533Q524 678 507 657T469 610T424 555T380 500T341 452T315 420L560 0H478Q469 16 452 44T415 108T373 181T330 254T294 317T268 362L126 190V0H56V689H126V297H130Z" />
<glyph unicode="L" glyph-name="L" horiz-adv-x="519" d="M62 0V689H132V63H512V0H62Z" />
<glyph unicode="M" glyph-name="M" horiz-adv-x="725" d="M368 194L603 689H668V0H598V523H595L393 106H338L134 516H130L126 0H56V689H124L364 194H368Z" />
<glyph unicode="N" glyph-name="N" horiz-adv-x="629" d="M501 134V689H571V0H501Q492 14 473 42T430 107T376 188T316 277T257 366T202 447T158 511T130 552H127V0H57V689H125Q137 671 165 628T230 530T308 414T386 297T452 197T496 134H501Z" />
<glyph unicode="O" glyph-name="O" horiz-adv-x="600" d="M549 223Q549 170 531 128T479 55T400 9T300 -7Q244 -7 199 9T121 56T70 128T52 224V465Q52 516 69 558T119 631T198 679T300 696Q355 696 401 679T480 632T531 559T549 465V223ZM478 455Q478 501 464
534T425 588T368 620T300 631Q263 631 231 621T174 589T136 534T122 455V232Q122 185 137 152T177 98T234 67T300 57Q336 57 368 67T425 98T463 153T478 232V455Z" />
<glyph unicode="P" glyph-name="P" horiz-adv-x="547" d="M526 487Q526 451 513 415T475 351T415 304T333 286H124V0H54V689H333Q382 689 418 671T479 625T514 560T526 487ZM455 487Q455 518 445 543T416 587T372 615T319 625H124V352H319Q347 352 372 361T415
388T444 430T455 487Z" />
<glyph unicode="Q" glyph-name="Q" horiz-adv-x="600" d="M549 223Q549 175 533 135T489 66T421 18T333 -5V-30Q333 -81 355 -98T418 -115Q423 -115 428 -115T438 -114V-171Q428 -173 419 -173T402 -173Q362 -173 336 -163T295 -134T274 -91T268 -35V-5Q219 -1
179 17T111 65T68 135T52 224V465Q52 516 69 558T119 631T198 679T300 696Q355 696 401 679T480 632T531 559T549 465V223ZM478 455Q478 501 464 534T425 588T368 620T300 631Q263 631 231 621T174 589T136 534T122 455V232Q122 185 137 152T177 98T234 67T300
57Q336 57 368 67T425 98T463 153T478 232V455Z" />
<glyph unicode="R" glyph-name="R" horiz-adv-x="564" d="M126 0H56V689H334Q385 689 421 671T482 625T517 560T529 487Q529 458 521 429T496 375T455 330T399 299L531 0H453L331 286H126V0ZM126 624V351H321Q350 351 375 360T419 387T448 430T459 487Q459 518
449 543T420 587T376 614T321 624H126Z" />
<glyph unicode="S" glyph-name="S" horiz-adv-x="546" d="M515 186Q515 141 498 106T449 46T373 8T274 -6Q205 -6 146 13T30 71L67 123Q113 94 166 76T275 57Q350 57 396 90T442 186Q442 223 426 246T385 283T328 306T265 320Q224 327 186 340T117 374T69 428T50
509Q50 551 65 586T108 646T177 686T269 700Q326 700 381 690T485 650L453 590Q409 614 361 625T266 636Q237 636 211 629T164 605T131 565T119 507Q119 475 135 454T176 419T231 397T290 383Q335 373 376 361T447 327T496 272T515 186Z" />
<glyph unicode="T" glyph-name="T" horiz-adv-x="518" d="M295 624V0H224V624H16V689H501V624H295Z" />
<glyph unicode="U" glyph-name="U" horiz-adv-x="600" d="M550 218Q550 166 531 125T478 54T399 9T301 -7Q248 -7 203 8T124 53T71 124T52 219V689H123V232Q123 185 137 152T177 98T234 67T301 57Q335 57 367 67T424 98T464 152T479 232V689H550V218V218Z" />
<glyph unicode="V" glyph-name="V" horiz-adv-x="555" d="M280 106Q300 172 320 238T361 371L463 689H539Q482 515 427 345T315 0H237L13 689H90Q116 607 141 526T193 363L275 106H280Z" />
<glyph unicode="W" glyph-name="W" horiz-adv-x="850" d="M419 558Q413 535 402 490T376 388T345 270T315 155T290 59T274 0H193L10 689H86L232 104H235L385 689H459Q472 640 485 589T515 471T554 316T609 104H612Q616 121 627 165T652 266T683 389T715 513T741
620T759 689H834L651 0H570Q565 18 554 60T529 156T499 272T468 389T441 491T423 558H419Z" />
<glyph unicode="X" glyph-name="X" horiz-adv-x="526" d="M434 0L263 294L92 0H10L223 353L24 689H106L263 413L420 689H501L302 353L516 0H434Z" />
<glyph unicode="Y" glyph-name="Y" horiz-adv-x="514" d="M292 0H221V261Q169 369 117 475T12 689H89Q93 681 105 656T133 596T167 522T203 446T235 379T258 334Q263 345 276 373T306 437T341 513T376 588T406 651T424 689H499L292 263V0Z" />
<glyph unicode="Z" glyph-name="Z" horiz-adv-x="520" d="M483 628L121 63H482V0H38V62L399 625H53V689H483V628Z" />
<glyph unicode="[" glyph-name="bracketleft" horiz-adv-x="248" d="M74 -107V698H230V652H134V-62H230V-107H74Z" />
<glyph unicode="\" glyph-name="backslash" horiz-adv-x="305" d="M-2 725H48L300 -42H249L-2 725Z" />
<glyph unicode="]" glyph-name="bracketright" horiz-adv-x="248" d="M31 -107V-62H126V652H31V698H186V-107H31Z" />
<glyph unicode="^" glyph-name="asciicircum" horiz-adv-x="484" d="M34 330L221 694H269L455 331H399L244 636Q240 627 229 604T201 549T168 484T134 418T107 363T91 330H34Z" />
<glyph unicode="_" glyph-name="underscore" horiz-adv-x="497" d="M0 -118V-69H497V-118H0Z" />
<glyph unicode="`" glyph-name="grave" horiz-adv-x="487" d="M299 557L200 717L265 739L340 573L299 557Z" />
<glyph unicode="a" glyph-name="a" horiz-adv-x="481" d="M367 54Q302 16 261 6T191 -5Q121 -5 78 32T35 139Q35 179 52 206T96 251T152 275T208 283H369V327Q369 385 338 412T244 439Q213 439 176 431T101 393L68 443Q113 476 158 487T249 499Q348 499 391 455T434
329V0H378L369 53L367 54ZM369 228H223Q205 228 184 226T145 214T115 187T103 139Q103 95 132 75T203 54Q223 54 245 60T289 75T331 95T369 116V228Z" />
<glyph unicode="b" glyph-name="b" horiz-adv-x="491" d="M447 167Q447 125 435 93T402 39T351 6T285 -5Q271 -5 255 -4T219 4T174 21T115 51L106 0H49V716H115V434Q151 455 177 468T224 488T259 497T289 499Q367 499 407 455T447 326V167ZM381 315Q381 381 355
408T280 435Q248 435 204 415T115 365V117Q135 103 157 92T202 74T244 62T280 57Q327 57 354 85T381 178V315Z" />
<glyph unicode="c" glyph-name="c" horiz-adv-x="420" d="M241 500Q282 500 324 489T399 445L359 395Q328 422 299 430T245 438Q222 438 199 431T156 409T126 368T114 306V188Q114 152 125 127T155 87T197 64T245 56Q268 56 301 65T357 95L398 48Q365 19 325 7T243
-5Q199 -5 163 8T102 44T62 100T48 172V319Q48 360 63 393T104 450T166 487T241 500Z" />
<glyph unicode="d" glyph-name="d" horiz-adv-x="491" d="M387 0L378 58Q346 38 321 26T275 7T238 -2T207 -5Q135 -5 91 36T47 167V325Q47 409 95 454T220 499Q248 499 286 492T378 463V716H443V0H387ZM378 397Q288 437 226 437Q173 438 143 409T112 314V174Q112
109 138 83T212 57Q244 57 290 76T378 124V397Z" />
<glyph unicode="e" glyph-name="e" horiz-adv-x="475" d="M114 221V182Q114 147 125 123T156 83T199 60T251 53Q283 53 316 65T379 104L420 59Q385 24 341 10T249 -5Q207 -5 171 6T107 39T64 96T48 175V309Q48 352 62 387T103 447T165 485T244 499Q287 499 322
486T383 449T423 390T437 314V221H114ZM371 306Q371 342 361 367T332 408T291 431T244 439Q219 439 196 431T154 407T125 367T114 308V276H371V306Z" />
<glyph unicode="f" glyph-name="f" horiz-adv-x="293" d="M154 434V0H89V434H28V494H89V593Q89 624 98 647T124 686T163 709T211 717H292V659H220Q200 659 187 653T167 637T157 613T154 583V494H292V434H154Z" />
<glyph unicode="g" glyph-name="g" horiz-adv-x="489" d="M205 499Q218 499 234 497T272 489T318 470T375 438L384 494H441V-34Q441 -76 425 -109T381 -164T316 -197T236 -209Q194 -209 148 -196T66 -152L108 -103Q120 -114 136 -122T169 -136T203 -145T236 -148Q263
-148 288 -141T333 -119T363 -78T375 -17V57Q315 19 274 7T203 -5Q131 -6 87 38T43 166V326Q43 368 55 400T88 454T140 487T205 499ZM375 369Q330 401 287 418T211 435Q163 435 136 408T109 314V178Q109 113 135 85T209 57Q243 57 287 75T375 121V369Z" />
<glyph unicode="h" glyph-name="h" horiz-adv-x="488" d="M291 499Q369 499 407 455T446 326V0H380V315Q380 381 354 408T280 435Q247 435 202 416T114 370V0H48V716H114V432Q178 473 220 486T291 499Z" />
<glyph unicode="i" glyph-name="i" horiz-adv-x="204" d="M144 649Q144 632 132 620T102 607Q85 607 73 619T60 649Q60 667 72 679T102 691Q119 691 131 679T144 649ZM69 0V494H134V0H69Z" />
<glyph unicode="j" glyph-name="j" horiz-adv-x="232" d="M167 649Q167 632 155 620T125 607Q108 607 96 619T84 649Q84 667 96 679T125 691Q142 691 154 679T167 649ZM92 493H158V-69Q158 -143 126 -174T30 -206H-14V-147H21Q62 -147 77 -129T92 -59V493Z" />
<glyph unicode="k" glyph-name="k" horiz-adv-x="465" d="M47 0V716H112V316H205Q236 316 262 328T309 382L365 496H438L380 370Q366 341 350 321T302 289Q323 284 336 274T359 250T375 220T386 188L450 0H378L322 165Q313 192 303 209T281 235T254 248T216 252H112V0H47Z"
/>
<glyph unicode="l" glyph-name="l" horiz-adv-x="264" d="M152 123Q152 80 169 68T228 58L230 -2Q219 -4 209 -4T189 -5Q129 -5 108 25T87 114V716H152V123Z" />
<glyph unicode="m" glyph-name="m" horiz-adv-x="748" d="M267 499Q318 499 347 477T391 419Q422 445 447 461T492 485T528 496T558 499Q629 499 667 459T705 337V0H639V321Q639 377 619 406T547 435Q516 435 481 417T404 364Q406 353 406 345T407 325V0H341V323Q341
435 255 435Q225 435 191 421T109 372V0H43V494H100L109 431Q137 452 159 465T201 486T236 496T267 499Z" />
<glyph unicode="n" glyph-name="n" horiz-adv-x="489" d="M290 499Q363 499 403 455T444 326V0H378V315Q378 381 351 408T276 435Q243 435 200 417T112 369V0H46V494H103L112 432Q179 473 219 486T290 499Z" />
<glyph unicode="o" glyph-name="o" horiz-adv-x="492" d="M446 174Q446 132 431 99T389 42T326 7T246 -5Q203 -5 167 7T104 42T62 99T47 174V320Q47 362 63 395T106 451T169 486T247 499Q290 499 326 487T389 451T431 395T446 320V174ZM381 306Q381 342 369 367T338
408T295 431T248 438Q224 438 200 431T157 408T125 367T113 306V188Q113 152 124 127T153 85T196 62T248 55Q273 55 296 62T339 85T369 126T381 188V306Z" />
<glyph unicode="p" glyph-name="p" horiz-adv-x="492" d="M106 492L115 434Q147 454 173 467T219 487T256 496T286 499Q358 499 402 457T447 326V168Q447 84 401 39T274 -6Q245 -6 208 0T115 32V-200H50V492H106ZM115 96Q166 73 201 64T268 55Q320 55 350 82T381
175V318Q381 383 354 409T281 435Q266 435 246 430T203 416T159 395T115 368V96Z" />
<glyph unicode="q" glyph-name="q" horiz-adv-x="487" d="M377 -201V55Q345 35 319 24T273 6T236 -3T205 -5Q133 -5 89 38T45 167V327Q45 411 90 455T206 499Q220 499 236 497T272 489T318 472T377 441L386 493H442V-201H377ZM377 375Q332 404 287 420T212 437Q164
437 137 408T110 316V178Q110 114 136 86T211 58Q243 58 286 74T377 123V375Z" />
<glyph unicode="r" glyph-name="r" horiz-adv-x="314" d="M311 428Q244 421 200 402T132 366V0H66V494H124L132 421H133Q147 434 167 448T211 473T260 491T311 500V428Z" />
<glyph unicode="s" glyph-name="s" horiz-adv-x="447" d="M231 49Q252 49 273 53T311 68T338 96T349 138Q349 170 328 187T269 213Q234 222 195 228T122 248T68 286T46 355Q46 387 59 413T95 459T150 488T221 499Q275 499 316 489T394 452Q386 440 378 428T361
403Q328 423 294 432T222 441Q171 441 140 417T109 355Q109 337 118 325T142 304T179 290T226 279Q257 273 290 266T352 244T397 204T415 136Q415 104 402 78T363 33T304 4T226 -6Q176 -6 128 5T33 52L68 101Q105 72 144 61T231 49Z" />
<glyph unicode="t" glyph-name="t" horiz-adv-x="349" d="M337 9Q311 1 284 -2T243 -5Q167 -5 135 29T103 145V434H30V494H104L121 610H168V494H310V434H168V164Q168 102 188 80T252 57Q267 57 286 59T327 65L337 9Z" />
<glyph unicode="u" glyph-name="u" horiz-adv-x="492" d="M386 0L377 60Q345 40 320 28T275 8T239 -2T208 -5Q130 -5 88 38T45 167V494H111V177Q111 112 139 85T214 57Q247 57 289 76T377 127V494H444V0H386Z" />
<glyph unicode="v" glyph-name="v" horiz-adv-x="444" d="M224 88L286 276L360 493H431L254 0H188Q143 123 100 246T11 493H82L154 281Q164 251 174 222T192 167T207 121T218 88H224Z" />
<glyph unicode="w" glyph-name="w" horiz-adv-x="687" d="M344 364L290 200L224 0H159Q153 20 142 59T116 146T87 246T58 347T33 434T15 494H83Q86 483 93 458T107 404T122 350T132 313L192 97H194L269 321Q272 328 278 346T291 384T304 422T312 448H380L438 274Q440
269 448 243T467 186T486 129T497 97H500L556 305L607 494H673Q667 474 656 435T632 348T603 247T575 146T551 59T534 0H468L400 205Q395 218 387 243T370 293T354 339T346 364H344Z" />
<glyph unicode="x" glyph-name="x" horiz-adv-x="418" d="M329 0L206 200L82 0H3L169 253L12 494H92L207 306L323 494H402L243 254L409 0H329Z" />
<glyph unicode="y" glyph-name="y" horiz-adv-x="448" d="M114 -200L187 6L152 38L9 493H79Q84 479 93 448T113 382T132 316T147 270L212 60H214L289 270Q294 284 305 315T329 381T352 447T368 493H438Q427 464 408 410T363 288T311 147T260 6T215 -116T185 -200H114Z" />
<glyph unicode="z" glyph-name="z" horiz-adv-x="435" d="M36 0V53L315 435H51V493H396V439L118 58H396V0H36Z" />
<glyph unicode="{" glyph-name="braceleft" horiz-adv-x="248" d="M183 -106Q145 -106 121 -81T96 -1V138Q96 197 80 232T22 276V315Q43 319 57 332T80 365T93 407T97 455V590Q97 638 121 667T183 696H240V654H203Q187 654 177 646T162 624T154 595T152 564V434Q152
402 145 378T126 338T103 311T81 298V296Q91 293 103 283T127 257T145 217T152 163V26Q152 11 154 -5T161 -34T177 -56T203 -65H240V-106H183Z" />
<glyph unicode="|" glyph-name="bar" horiz-adv-x="189" d="M71 -162V716H121V-162H71Z" />
<glyph unicode="}" glyph-name="braceright" horiz-adv-x="248" d="M238 276Q196 268 180 233T164 138V-1Q164 -49 140 -77T78 -106H19V-65H57Q73 -65 83 -57T98 -35T106 -5T108 26V163Q108 193 115 216T133 256T156 283T179 296V298Q169 301 157 311T134 337T116
378T108 434V564Q108 579 107 594T101 623T86 645T57 654H19V693H76Q120 693 141 664T163 590V455Q163 431 166 408T179 365T202 333T238 315V276V276Z" />
<glyph unicode="~" glyph-name="asciitilde" horiz-adv-x="487" d="M464 304Q440 266 413 246T342 225Q319 225 294 234T243 255T192 276T146 286Q120 286 103 273T66 237L25 268Q49 306 80 324T147 343Q172 343 197 334T247 313T296 292T344 282Q370 282 386
295T422 334L464 304V304Z" />
</font>
</defs>
</svg>
